<?xml version="1.0" standalone="no"?>
<!DOCTYPE svg PUBLIC "-//W3C//DTD SVG 20010904//EN"
 "http://www.w3.org/TR/2001/REC-SVG-20010904/DTD/svg10.dtd">
<svg version="1.0" xmlns="http://www.w3.org/2000/svg"
 viewBox="0 0 2600.000000 2600.000000"
 preserveAspectRatio="xMidYMid meet">
<metadata>
Created by potrace 1.15, written by Peter Selinger 2001-2017
</metadata>
<g transform="translate(0.000000,2600.000000) scale(0.100000,-0.100000)"
fill="white" stroke="none">
<path d="M5345 22146 c-308 -60 -494 -211 -655 -534 -300 -600 -483 -1772
-560 -3587 l-11 -260 -78 -80 c-441 -457 -838 -972 -1148 -1490 -866 -1448
-1161 -3077 -847 -4680 217 -1106 760 -2218 1550 -3170 313 -377 734 -806
1061 -1081 45 -38 82 -71 82 -74 0 -3 -75 -50 -166 -105 -253 -152 -544 -346
-592 -396 -67 -70 -104 -155 -109 -253 -7 -136 37 -247 130 -332 103 -92 677
-449 1093 -678 1948 -1074 4077 -1739 6085 -1901 588 -47 1392 -49 2060 -5
1674 111 3271 452 4723 1009 523 200 1098 475 1472 704 72 44 135 80 140 80 6
0 623 -403 1372 -895 750 -493 1383 -905 1408 -917 95 -45 239 -43 341 3 99
46 187 148 218 255 14 49 16 301 16 2559 l0 2504 124 187 c704 1060 1087 2159
1167 3351 15 226 6 821 -15 1020 -59 551 -159 1005 -326 1495 -339 988 -890
1877 -1704 2747 l-136 146 -10 234 c-86 1991 -293 3204 -638 3748 -153 242
-358 371 -637 402 -297 33 -665 -109 -1190 -460 -374 -251 -967 -727 -1518
-1220 l-159 -141 -46 18 c-85 33 -534 179 -707 230 -2807 824 -6002 753 -8713
-193 -74 -25 -140 -46 -149 -46 -8 0 -74 53 -146 118 -864 776 -1595 1322
-2072 1548 -270 127 -520 177 -710 140z m380 -1123 c421 -231 1148 -807 1979
-1566 206 -188 273 -221 451 -221 l110 0 185 68 c934 345 1866 570 2886 696
623 76 1084 104 1744 104 629 0 1075 -26 1665 -95 1000 -116 2026 -358 2895
-679 102 -38 212 -76 245 -85 110 -28 237 -15 340 37 71 35 93 52 205 153 797
727 1476 1273 1898 1529 100 61 225 126 241 126 25 0 109 -272 166 -535 44
-206 125 -698 125 -760 0 -7 -271 -236 -603 -508 -332 -273 -622 -516 -646
-542 -61 -66 -92 -142 -98 -241 -9 -140 43 -261 149 -346 23 -19 369 -244 768
-500 l726 -466 171 -174 c434 -440 766 -866 1066 -1368 114 -192 310 -584 393
-785 539 -1316 561 -2726 62 -4048 -238 -633 -618 -1279 -1074 -1829 l-89
-107 -1015 -667 c-558 -367 -1038 -682 -1066 -699 l-50 -33 -125 74 c-751 450
-1829 885 -2929 1183 -124 34 -233 65 -243 69 -17 7 -15 13 22 57 180 217 118
527 -128 648 -62 30 -72 32 -176 32 -98 0 -116 -3 -166 -26 -69 -33 -123 -80
-202 -179 -354 -442 -867 -681 -1512 -707 -185 -7 -430 11 -582 43 l-23 4 0
1309 0 1309 86 46 c369 197 749 640 840 981 37 136 -6 241 -140 341 -161 121
-418 209 -761 261 -172 26 -697 26 -870 0 -489 -73 -818 -228 -901 -426 -60
-144 85 -462 348 -761 148 -168 309 -298 486 -392 l92 -50 0 -1309 c0 -720 -2
-1309 -4 -1309 -2 0 -28 -5 -57 -10 -105 -21 -326 -40 -456 -40 -436 0 -859
116 -1177 324 -161 104 -281 217 -470 440 -96 113 -206 162 -352 154 -125 -7
-218 -57 -298 -162 -43 -56 -76 -158 -76 -232 0 -47 -3 -54 -22 -59 -13 -3
-113 -23 -223 -46 -1173 -237 -2446 -674 -3647 -1252 l-178 -86 -139 113
c-936 754 -1661 1651 -2094 2591 -276 600 -433 1171 -504 1835 -25 233 -25
786 1 1024 75 717 261 1349 585 1996 310 619 691 1145 1247 1726 l173 181 765
492 c484 311 777 506 799 531 136 150 140 392 7 543 -17 20 -304 261 -637 534
-333 273 -607 503 -610 510 -12 30 73 559 132 825 33 147 95 359 130 442 19
45 22 45 160 -31z m4770 -12737 c357 -240 736 -381 1220 -453 150 -22 667 -26
810 -5 175 25 281 44 414 74 l134 30 171 -36 c284 -60 424 -77 696 -83 153 -3
290 -1 365 6 388 38 745 135 1047 287 l88 44 158 -35 c1420 -322 2796 -853
3609 -1391 199 -133 215 -139 343 -139 92 0 112 3 160 26 31 14 582 371 1224
793 642 422 1170 766 1172 763 2 -2 3 -796 2 -1765 l-3 -1761 -1115 732
c-1314 863 -1233 811 -1300 831 -73 22 -188 21 -253 -2 -28 -11 -129 -71 -223
-134 -369 -249 -806 -470 -1384 -703 -1281 -515 -2763 -859 -4290 -994 -525
-47 -723 -55 -1325 -56 -593 0 -713 5 -1134 46 -1574 153 -3189 621 -4814
1395 -357 170 -956 488 -1176 625 l-44 27 95 56 c341 200 1044 563 1428 736
1213 546 2383 915 3567 1125 103 18 201 34 218 34 21 1 61 -20 140 -73z"/>
<path d="M7996 14949 c-366 -53 -690 -309 -824 -649 -55 -142 -67 -209 -67
-390 0 -129 4 -181 19 -240 97 -386 382 -676 764 -777 82 -22 120 -26 247 -27
206 -1 319 25 495 115 255 130 458 380 529 651 80 307 26 617 -151 875 -222
324 -622 499 -1012 442z"/>
<path d="M17834 14945 c-393 -69 -719 -361 -829 -740 -202 -697 347 -1385
1070 -1342 452 28 834 342 952 783 24 88 27 117 27 264 0 146 -3 176 -27 262
-81 304 -281 547 -562 684 -182 89 -433 124 -631 89z"/>
<path d="M5689 12184 c-163 -50 -184 -288 -34 -371 32 -17 481 -98 2205 -397
1191 -207 2181 -376 2200 -376 113 1 214 120 196 233 -12 74 -69 147 -130 166
-34 11 -4356 761 -4378 760 -7 0 -34 -7 -59 -15z"/>
<path d="M18215 11824 c-1685 -293 -2170 -380 -2205 -398 -57 -28 -101 -96
-108 -166 -10 -105 74 -205 181 -217 28 -3 775 122 2212 372 1995 346 2174
378 2215 403 168 102 105 356 -92 377 -29 3 -778 -123 -2203 -371z"/>
<path d="M7885 10545 c-1171 -89 -2155 -165 -2187 -169 -67 -7 -102 -22 -140
-63 -56 -58 -73 -148 -43 -221 36 -84 105 -125 210 -123 38 0 1041 75 2227
165 l2158 164 44 26 c54 32 81 68 96 129 33 128 -73 261 -205 256 -16 -1 -988
-75 -2160 -164z"/>
<path d="M16036 10695 c-87 -31 -144 -123 -133 -216 12 -100 76 -164 179 -180
75 -12 4264 -329 4359 -331 104 -1 177 48 208 141 37 111 -35 236 -150 260
-39 8 -4395 344 -4421 341 -1 -1 -20 -7 -42 -15z"/>
</g>
</svg>
