<?xml version="1.0" standalone="no"?>
<!DOCTYPE svg PUBLIC "-//W3C//DTD SVG 20010904//EN"
 "http://www.w3.org/TR/2001/REC-SVG-20010904/DTD/svg10.dtd">
<svg version="1.0" xmlns="http://www.w3.org/2000/svg"
 viewBox="0 0 2600.000000 2600.000000"
 preserveAspectRatio="xMidYMid meet">
<metadata>
Created by potrace 1.15, written by Peter Selinger 2001-2017
</metadata>
<g transform="translate(0.000000,2600.000000) scale(0.100000,-0.100000)"
fill="white" stroke="none">
<path d="M12975 21733 c-1249 -21 -2525 -304 -3672 -814 l-158 -70 -20 24
c-130 156 -183 212 -264 279 -270 224 -603 361 -991 408 -138 17 -451 14 -610
-5 -1090 -132 -2330 -826 -3421 -1915 -789 -788 -1498 -1746 -1872 -2530 -288
-606 -420 -1110 -421 -1620 0 -314 43 -561 144 -822 193 -501 590 -933 1086
-1183 307 -155 692 -236 1049 -221 l150 6 -3 -312 c-8 -746 79 -1423 268
-2093 486 -1718 1593 -3101 3238 -4046 210 -121 663 -346 892 -443 1214 -516
2567 -805 4105 -876 283 -13 1089 -13 1360 0 1332 64 2505 282 3565 662 2849
1023 4593 3110 4899 5863 36 320 45 503 46 877 l0 368 145 -6 c629 -27 1225
217 1670 683 322 337 507 701 585 1154 22 127 31 494 16 640 -110 1045 -759
2232 -1932 3529 -716 792 -1505 1412 -2309 1814 -539 269 -1021 421 -1510 476
-143 17 -455 14 -595 -5 -439 -58 -814 -238 -1081 -518 -50 -52 -106 -116
-124 -141 -18 -25 -37 -46 -40 -46 -4 0 -51 20 -103 45 -279 129 -629 264
-987 380 -992 322 -2036 476 -3105 458z m590 -1263 c1093 -57 2093 -307 3086
-770 l156 -72 6 -177 c37 -1109 684 -2488 1727 -3681 164 -187 423 -461 616
-650 631 -618 1222 -1073 1826 -1404 45 -25 69 -44 73 -59 28 -132 44 -870 26
-1169 -65 -1058 -352 -1969 -869 -2758 -305 -466 -697 -893 -1152 -1255 -1138
-904 -2717 -1480 -4585 -1670 -759 -77 -1632 -84 -2410 -20 -2553 212 -4589
1140 -5724 2610 -218 281 -384 549 -546 880 -322 655 -487 1284 -557 2120 -24
287 -14 948 19 1232 l6 53 96 51 c645 348 1315 886 2060 1654 939 969 1608
2047 1916 3090 104 353 154 648 171 1007 l7 146 126 60 c946 453 2009 723
3076 781 220 12 632 12 850 1z"/>
<path d="M16032 15764 c-29 -7 -65 -20 -81 -29 -85 -44 -1093 -714 -1134 -753
-161 -157 -161 -427 0 -585 55 -54 1076 -726 1160 -763 222 -99 498 36 563
274 29 110 5 253 -59 346 -45 65 -83 94 -355 271 -135 88 -246 162 -245 165 0
3 111 77 247 165 136 88 270 181 298 208 167 155 168 437 1 594 -112 106 -255
145 -395 107z"/>
<path d="M10285 15463 c-62 -9 -173 -46 -245 -84 -242 -125 -399 -368 -417
-644 -28 -449 329 -825 784 -825 423 0 773 350 773 773 0 442 -354 794 -790
785 -41 0 -88 -3 -105 -5z"/>
<path d="M13030 13204 c-424 -52 -734 -224 -859 -479 -42 -84 -54 -152 -48
-260 6 -115 41 -209 119 -326 57 -85 207 -240 268 -275 16 -10 30 -22 30 -26
0 -14 -51 -91 -107 -161 -157 -195 -391 -309 -638 -308 -127 0 -198 16 -302
67 -97 47 -159 110 -214 214 -90 174 -255 299 -444 336 -312 61 -626 -133
-719 -444 -45 -154 -27 -300 59 -478 368 -757 1323 -1134 2203 -869 244 73
445 175 651 329 52 39 102 77 112 84 15 12 26 6 92 -46 485 -385 1102 -533
1697 -406 239 51 493 160 680 292 133 93 338 301 422 427 87 131 153 268 174
362 35 157 3 337 -84 473 -118 186 -356 305 -570 286 -226 -21 -407 -141 -517
-346 -104 -193 -269 -282 -525 -282 -179 -1 -335 53 -487 168 -79 61 -137 124
-207 229 l-47 70 32 25 c213 163 331 325 380 521 107 421 -354 808 -981 824
-74 2 -151 1 -170 -1z"/>
</g>
</svg>
